<svg width="96" height="96" viewBox="0 0 96 96" fill="none" xmlns="http://www.w3.org/2000/svg">
<path d="M82 48C82 66.8 66.8 82 48 82C29.2 82 14 66.8 14 48C14 29.2 29.2 14 48 14C66.8 14 82 29.2 82 48Z" fill="white"/>
<path d="M42 82.0002V71.0002C42 70.4002 42.4 70.0002 43 70.0002C43.6 70.0002 44 70.4002 44 71.0002V82.0002H48V69.0002C48 68.4002 48.4 68.0002 49 68.0002C49.6 68.0002 50 68.4002 50 69.0002V82.0002H54V71.0002C54 70.4002 54.4 70.0002 55 70.0002C55.6 70.0002 56 70.4002 56 71.0002V82.0002H59.6C60 81.4002 60 80.8002 60 79.8002V72.0002C60 67.6002 56.2 61.6002 51.4 61.6002H46.4C41.8 61.6002 37.8 67.8002 37.8 72.0002V79.8002C37.8 80.6002 38 81.4002 38.2 82.0002H42ZM80.2 52.8002C80.2 52.8002 77.6 52.0002 75.4 52.0002H75.2C73 52.0002 69.4 52.6002 69.4 52.6002C69.2 52.6002 69.2 52.6002 69.2 52.4002C69.2 52.2002 69.2 52.2002 69.4 52.2002C69.6 52.2002 73.4 51.6002 75.6 51.6002C77.8 51.6002 80.4 52.4002 80.6 52.4002C80.8 52.4002 80.8 52.6002 80.8 52.8002C80.4 52.6002 80.4 52.8002 80.2 52.8002ZM79.6 54.4002C79.6 54.4002 76.8 53.6002 74.4 53.6002C72.6 53.6002 68.4 54.0002 68.2 54.0002C68 54.0002 68 54.0002 68 53.8002C68 53.6002 68 53.6002 68.2 53.6002C68.4 53.6002 72.6 53.2002 74.4 53.2002C77 53.2002 79.6 54.0002 79.6 54.0002C79.8 54.0002 79.8 54.2002 79.8 54.4002C79.8 54.2002 79.8 54.4002 79.6 54.4002ZM15.6 52.8002C15.4 52.8002 15.4 52.8002 15.4 52.6002C15.4 52.4002 15.4 52.4002 15.6 52.2002C17.2 51.8002 20.4 51.2002 22.2 51.2002C23.8 51.2002 29.2 51.6002 29.4 51.6002C29.6 51.6002 29.6 51.8002 29.6 51.8002C29.6 52.0002 29.4 52.0002 29.4 52.0002C29.4 52.0002 24 51.6002 22.4 51.6002C20.2 52.0002 17.2 52.4002 15.6 52.8002ZM16.4 55.8002C16.4 55.8002 16.2 55.8002 16.2 55.6002C16.2 55.4002 16.2 55.4002 16.2 55.2002C16.4 55.2002 19 53.6002 22 53.2002C24.6 52.8002 30 53.4002 30.4 53.4002C30.6 53.4002 30.6 53.6002 30.6 53.6002C30.6 53.8002 30.4 53.8002 30.4 53.8002C30.4 53.8002 24.8 53.2002 22.2 53.6002C19.2 54.2002 16.4 55.8002 16.4 55.8002Z" fill="#455A64"/>
<path d="M28.4 47C28.4 38.2 37.6 30 49 30C60.4 30 69.6 38 69.6 47C69.6 56 63 62 49 62C35 62 28.4 55.8 28.4 47Z" fill="#455A64"/>
<path d="M57.2 32.6C57.2 32.6 60.6 28 66.8 28C69.2 30.4 67.6 37.6 66.8 39.6L57.2 32.6ZM40.8 32.6C40.8 32.6 37.4 28 31.2 28C28.8 30.4 30.4 37.6 31.2 39.6L40.8 32.6ZM40.2 71.8C40.2 71.8 35.6 71.8 34.6 71.8C32.2 71.8 30 70.8 29 68.8C27.8 66.6 26.8 64.2 23.8 62.2C23.2 61.8 23.6 61.4 24.6 61.4C25.6 61.6 27.4 61.8 28.8 63.6C30.2 65.4 31.8 67.6 34.4 67.6C37 67.6 39.8 67.6 41.4 65.8L40.2 71.8Z" fill="#455A64"/>
<path d="M48 8C26 8 8 26 8 48C8 70 26 88 48 88C70 88 88 70 88 48C88 26 70 8 48 8ZM48 80C30.4 80 16 65.6 16 48C16 30.4 30.4 16 48 16C65.6 16 80 30.4 80 48C80 65.6 65.6 80 48 80Z" fill="#00BCD4"/>
</svg>
