<svg width="96" height="96" viewBox="0 0 96 96" fill="none" xmlns="http://www.w3.org/2000/svg">
<path d="M84 74C84 79.524 79.524 84 74 84H22C16.478 84 12 79.524 12 74V22C12 16.476 16.478 12 22 12H74C79.524 12 84 16.476 84 22V74Z" fill="#0288D1"/>
<path d="M24 38H34V72H24V38ZM28.97 34H28.914C25.93 34 24 31.776 24 28.998C24 26.16 25.99 24 29.028 24C32.07 24 33.944 26.16 34 28.998C34 31.774 32.07 34 28.97 34ZM72 72H62V53.802C62 49.406 59.55 46.406 55.616 46.406C52.614 46.406 50.99 48.43 50.202 50.386C49.914 51.086 50 53.022 50 54V72H40V38H50V43.232C51.442 41 53.7 38 59.476 38C66.632 38 71.998 42.5 71.998 52.548L72 72Z" fill="white"/>
</svg>
