<svg width="100" height="100" viewBox="0 0 100 100" fill="none" xmlns="http://www.w3.org/2000/svg">
<g clip-path="url(#clip0_125_43)">
<path d="M35.8417 39.8375L25.6187 45.4938C25.2354 45.7042 25 46.0959 25 46.5188V57.8375C25 58.2604 25.2354 58.65 25.6187 58.8625L35.8437 64.523C36.225 64.7334 36.6979 64.7334 37.0792 64.523L47.3021 58.8625C47.6812 58.65 47.9167 58.2604 47.9167 57.8375V46.5188C47.9167 46.0959 47.6812 45.7063 47.2979 45.4938L37.0771 39.8375C36.8854 39.7313 36.6708 39.6792 36.4583 39.6792C36.2437 39.6792 36.0312 39.7313 35.8396 39.8375M88.4396 50.0271L86.7354 50.9688C86.6708 51.0042 86.6333 51.0688 86.6333 51.1396V53.0271C86.6333 53.0979 86.6729 53.1625 86.7354 53.1979L88.4396 54.1417C88.5042 54.1771 88.5812 54.1771 88.6458 54.1417L90.35 53.1979C90.4125 53.1625 90.4521 53.0979 90.4521 53.0271V51.1396C90.4521 51.0688 90.4125 51.0042 90.3479 50.9688L88.6437 50.0271C88.6125 50.0084 88.5771 50 88.5417 50C88.5062 50 88.4708 50.0084 88.4396 50.0271Z" fill="#388E3C"/>
<path d="M74.4813 27.8417L69.5042 25.0646C69.348 24.9771 69.1563 24.9792 69.0021 25.0708C68.848 25.1625 68.7521 25.3271 68.7521 25.5063L68.75 42.2813L64.1605 39.7417C63.9688 39.6354 63.7542 39.5833 63.5417 39.5833C63.3292 39.5833 63.1146 39.6354 62.923 39.7417H62.925L52.7021 45.3979C52.3188 45.6083 52.0834 46 52.0834 46.4208V57.7396C52.0834 58.1625 52.3188 58.5521 52.7021 58.7646L62.9271 64.425C63.3084 64.6354 63.7813 64.6354 64.1625 64.425L74.3855 58.7646C74.7646 58.5542 75 58.1625 75 57.7396V28.725C75 28.3583 74.8 28.0208 74.4813 27.8417ZM68.4709 55.1208L63.825 57.6938C63.6521 57.7896 63.4375 57.7896 63.2646 57.6938L58.6167 55.1208C58.4396 55.025 58.3334 54.8458 58.3334 54.6542V49.5083C58.3334 49.3167 58.4396 49.1396 58.6146 49.0417L63.2625 46.4708C63.35 46.4229 63.4438 46.4 63.5417 46.4C63.6396 46.4 63.7355 46.425 63.823 46.4708L68.4688 49.0417C68.6438 49.1396 68.75 49.3188 68.75 49.5104V54.6563C68.75 54.8458 68.6438 55.025 68.4709 55.1208Z" fill="#37474F"/>
<path d="M35.8417 39.8375L25 57.8375C25 58.2604 25.2354 58.65 25.6187 58.8625L35.8437 64.523C36.225 64.7334 36.6979 64.7334 37.0792 64.523L47.9167 46.5188C47.9167 46.0959 47.6812 45.7063 47.2979 45.4938L37.0771 39.8375C36.8854 39.7313 36.6708 39.6792 36.4583 39.6792C36.2437 39.6792 36.0312 39.7313 35.8396 39.8375" fill="#2E7D32"/>
<path d="M35.8417 39.8375L25.6187 45.4938C25.2354 45.7042 25 46.0959 25 46.5188L35.8417 64.523C36.2229 64.7334 36.6958 64.7334 37.0771 64.523L47.3 58.8625C47.6813 58.65 47.9167 58.2604 47.9167 57.8375L37.0771 39.8375C36.8854 39.7313 36.6708 39.6792 36.4583 39.6792C36.2437 39.6792 36.0312 39.7313 35.8396 39.8375" fill="#4CAF50"/>
<path d="M99.3812 45.3978L89.1604 39.7416C88.9687 39.6353 88.7542 39.5833 88.5417 39.5833C88.3292 39.5833 88.1146 39.6353 87.9229 39.7416L77.7021 45.3978C77.3208 45.6083 77.0833 46.0083 77.0833 46.4458V57.7187C77.0833 58.1541 77.3208 58.5562 77.7021 58.7666L87.9271 64.427C88.3104 64.6395 88.7792 64.6395 89.1625 64.427L93.8771 61.8166C94.3083 61.577 94.3062 60.9583 93.8729 60.7208L83.6146 55.1228C83.4417 55.0249 83.3333 54.8437 83.3333 54.6478V49.5103C83.3333 49.3187 83.4375 49.1416 83.6042 49.0499L88.2604 46.4749H88.2583C88.3458 46.427 88.4417 46.4041 88.5396 46.4041C88.6375 46.4041 88.7333 46.4291 88.8208 46.4749L93.4771 49.052C93.6437 49.1437 93.7479 49.3208 93.7479 49.5124V53.7041C93.7479 53.8833 93.8437 54.0499 94 54.1395C94.1562 54.227 94.3479 54.227 94.5042 54.1374L99.5 51.2353C99.8083 51.0562 100 50.7249 100 50.3666V46.4499C100 46.0103 99.7625 45.6083 99.3812 45.3978ZM22.2979 45.3978L12.0771 39.7416C11.8854 39.6353 11.6708 39.5833 11.4583 39.5833C11.2458 39.5833 11.0312 39.6353 10.8396 39.7416L0.61875 45.3978C0.2375 45.6083 0 46.0083 0 46.4458V61.9978C0 62.177 0.0958333 62.3437 0.252083 62.4333C0.408333 62.5208 0.6 62.5207 0.75625 62.4312L5.75208 59.5291C6.06042 59.3499 6.25 59.0187 6.25 58.6603V49.5083C6.25 49.3166 6.35417 49.1395 6.52083 49.0478L11.1771 46.4728C11.2646 46.4249 11.3604 46.402 11.4583 46.402C11.5562 46.402 11.6521 46.427 11.7396 46.4728L16.3958 49.0499C16.5625 49.1416 16.6667 49.3187 16.6667 49.5103V58.6624C16.6667 59.0208 16.8562 59.352 17.1667 59.5312L22.1625 62.4333C22.3187 62.5228 22.5104 62.5228 22.6667 62.4353C22.8208 62.3437 22.9167 62.177 22.9167 61.9978V46.4478C22.9167 46.0103 22.6792 45.6083 22.2979 45.3978Z" fill="#37474F"/>
</g>
<defs>
<clipPath id="clip0_125_43">
<rect width="100" height="100" fill="white"/>
</clipPath>
</defs>
</svg>
