<svg width="100" height="100" viewBox="0 0 100 100" fill="none" xmlns="http://www.w3.org/2000/svg">
<path d="M91.8396 62.0625C91.4583 60.3355 89.8916 58.3209 86.7312 58.3209C86.0854 58.3209 85.3791 58.4021 84.575 58.5688C83.1 58.873 81.8437 59.0209 80.7375 59.0709C89.3479 44.4042 94.9375 24.0313 89.402 16.9584C82.1083 7.63963 72.2896 6.24797 67.0875 6.24797L66.5979 6.25005C64.6625 6.2813 62.6541 6.5188 60.6333 6.9563L53.1687 8.5688C52.1521 8.44172 51.1166 8.35213 50.0375 8.33338H49.975H49.9416L49.625 8.3313C46.3062 8.3313 43.2791 9.03547 40.5812 10.3584L37.975 9.3313C34.3916 7.9188 29 6.23755 23.6666 6.23755C23.3666 6.23755 23.0687 6.2438 22.7687 6.25422C17.5146 6.4438 13.0021 8.43755 9.71664 12.0188C5.61664 16.4896 3.74997 23.0292 4.17289 31.4584C4.19372 31.8938 9.29372 75 23.75 75H23.8021L23.9354 74.998C25.8125 74.9521 27.6021 74.198 29.275 72.7542C30.5521 73.7125 32.2041 74.2792 33.7437 74.5042C34.7604 74.7438 36.5896 75.0834 38.7812 75.0834C41.4562 75.0834 43.8687 74.5355 45.9479 73.5459C45.9458 75.3792 45.9354 77.7 45.9146 80.6667L45.9125 80.823L45.9229 80.9792C46.125 83.9355 46.6354 86.6 47.4041 88.6896C49.5937 94.6459 53.375 97.9271 58.0521 97.9271C58.2458 97.9271 58.4437 97.9209 58.6437 97.9084C62.4896 97.6709 66.3875 95.5105 69.0687 92.1334C71.9708 88.4771 72.6416 84.6188 72.9 81.6626L72.9166 81.4813V81.298V72.8L73.1312 72.8209L74.0396 72.9L74.1271 72.9084L74.2146 72.9125C74.4729 72.925 74.7396 72.9292 75.0083 72.9292C78.1479 72.9292 82.0125 72.1146 84.625 70.9001C87.1229 69.7417 92.8312 66.5584 91.8396 62.0625Z" fill="white"/>
<path d="M68.75 70.8333C68.75 70.4063 68.775 70.05 68.7875 69.6563C68.7667 69.1333 68.75 68.75 68.75 68.75C68.75 68.75 68.775 68.7313 68.8167 68.7042C69.1271 63.1354 70.6625 60.9896 72.3063 59.7667C72.0771 59.4479 71.8125 59.1042 71.5646 58.7771C70.8708 57.8667 70.0063 56.7375 69.0813 55.2896L68.9104 54.9604C68.7708 54.6188 68.4333 54.0292 68.0042 53.2542C65.5396 48.7958 60.4104 39.5208 63.9208 33.6625C65.4583 31.0958 68.3417 29.6167 72.5063 29.2521C70.8042 24.4125 64.4271 12.7396 49.9688 12.5C49.9646 12.5 49.9604 12.5 49.9563 12.5C37.3708 12.2958 33.2354 23.7333 31.8896 30.5667C33.7438 29.7813 35.8604 29.3042 37.7979 29.3042C37.8271 29.3042 37.8583 29.3042 37.8875 29.3042C42.6583 29.3396 45.9396 31.8854 46.8938 36.2917C47.5917 39.525 47.9271 42.3542 47.9188 44.9438C47.8979 50.6083 46.7563 53.5875 45.7479 56.2167L45.4271 57.0667C45.1688 57.7625 44.8958 58.4104 44.6375 59.0188C44.375 59.6396 44.1438 60.1917 43.975 60.6896C44.9833 60.9188 45.775 61.2417 46.3188 61.4813L46.6333 61.6188C46.7313 61.6604 46.8292 61.7083 46.9188 61.7625C48.6854 62.8375 49.7854 64.4896 50.0208 66.4146C50.1479 67.4521 50.1271 74.525 50.0833 80.6958C50.2646 83.3729 50.7188 85.6208 51.3188 87.25C52.1708 89.5708 54.3 94.0021 58.3896 93.7479C61.2438 93.5708 63.9875 91.8333 65.8083 89.5417C67.7625 87.0813 68.4833 84.3604 68.7542 81.2958V70.8333H68.75Z" fill="#0277BD"/>
<path d="M31.4875 60.2438C28.1271 56.7376 26.4896 52.0209 27.1041 47.6272C27.6979 43.3876 27.3625 39.2376 27.1812 37.0063C27.1208 36.2626 27.0812 35.7084 27.0833 35.4022C27.0833 35.3855 27.0875 35.3709 27.0896 35.3543C27.0896 35.3459 27.0854 35.3397 27.0854 35.3313C27.3375 29.0376 29.7646 19.1084 36.4458 13.2063C33.1916 11.9251 27.8916 10.2355 22.9166 10.4168C15.1208 10.7001 7.57498 16.0918 8.33331 31.2501C8.61873 36.9376 15.0458 71.048 23.8333 70.8334C25.0896 70.8022 26.3937 69.9959 27.7333 68.3834C29.8521 65.8355 31.9104 63.5251 33.375 61.9168C32.7187 61.4188 32.0854 60.8688 31.4875 60.2438ZM77.1312 30.6897C77.1625 31.0105 77.1354 31.2855 77.0854 31.5397C77.15 33.4563 76.9437 35.3168 76.7333 37.1168C76.5791 38.4418 76.4208 39.8105 76.3771 41.1834C76.3333 42.5272 76.5229 43.8543 76.7229 45.2584C77.1916 48.5459 77.6791 52.2563 75.1291 56.5855C75.5979 57.2022 76.0104 57.7751 76.3396 58.3293C85.9437 42.7563 89.8146 24.2438 86.1208 19.5251C80.5312 12.3834 72.7937 10.3168 66.6646 10.4168C64.7458 10.448 63.0021 10.7063 61.5125 11.0293C72.0875 16.1543 76.7979 27.1376 77.1312 30.6897ZM85.4166 62.648C79.8646 63.7938 77.1937 63.1834 75.8979 62.3855C75.6896 62.5355 75.4812 62.6626 75.2875 62.7813C74.5125 63.2501 73.2854 63.9959 72.9854 68.5772C73.1583 68.6105 73.3104 68.6293 73.4979 68.6688L74.4041 68.7501C77.1541 68.8751 80.7562 68.1043 82.8687 67.123C87.4208 65.0105 89.9021 61.723 85.4166 62.648ZM45.8812 66.9147C45.8041 66.2938 45.4687 65.7918 44.8562 65.3897L44.6312 65.2918C43.8791 64.9605 43.0271 64.5834 41.6666 64.5834H41.6583C41.3937 64.6043 41.1312 64.623 40.8666 64.623C40.7583 64.623 40.6521 64.6084 40.5437 64.6043C39.5562 65.3647 38.1521 65.9522 34.6771 66.6668C28.4687 68.248 32.1333 70.1147 34.5146 70.4043C36.8187 70.9813 42.2958 71.6834 45.9333 68.7188C45.9229 67.7855 45.9062 67.1438 45.8812 66.9147Z" fill="#0277BD"/>
<path d="M43.0854 38.5437C42.4771 39.1729 41.5167 39.7229 40.4563 39.5521C38.7313 39.2729 37.4083 37.1917 37.5042 36.4104C37.5958 35.6312 39.0688 35.225 40.7917 35.5042C41.3896 35.6021 41.9333 35.7708 42.3917 35.9792C41.725 34.5458 40.5188 33.7187 38.6792 33.5167C35.4188 33.1542 31.9583 34.8583 31.2625 35.8021C31.2771 36.0312 31.3042 36.325 31.3313 36.6708C31.525 39.0604 31.8833 43.5125 31.2271 48.2062C30.7938 51.3 32.0458 54.8083 34.4917 57.3625C36.0688 59.0083 37.9104 60.05 39.7271 60.3583C39.9583 59.3625 40.3708 58.3917 40.7958 57.3896C41.0313 56.8375 41.2813 56.25 41.5167 55.6146L41.8542 54.725C42.7771 52.3187 43.7292 49.8292 43.7479 44.9271C43.7563 43.0417 43.525 40.8896 43.0854 38.5437ZM72.5979 45.8479C72.3813 44.3292 72.1583 42.7563 72.2125 41.05C72.2604 39.5042 72.4313 38.0458 72.5958 36.6354C72.725 35.525 72.825 34.4583 72.8833 33.4062C70.1979 33.6292 68.4146 34.4042 67.5688 35.7146C67.9188 35.5958 68.3146 35.5021 68.7521 35.4458C70.6104 35.2042 71.9667 35.7396 72.1229 36.7729C72.2375 37.5292 71.5958 38.2417 71.3146 38.5146C70.7375 39.075 70.0104 39.4354 69.2708 39.5313C69.1375 39.5479 69.0021 39.5562 68.8708 39.5562C68.1354 39.5562 67.4333 39.3042 66.8938 38.9313C67.1271 43.0417 70.1583 48.5396 71.65 51.2375C71.9688 51.8146 72.2146 52.275 72.4188 52.6708C73.2375 50.3396 72.9354 48.2146 72.5979 45.8479Z" fill="#0277BD"/>
</svg>
